<?xml version="1.0" standalone="no"?>
<!DOCTYPE svg PUBLIC "-//W3C//DTD SVG 20010904//EN"
 "http://www.w3.org/TR/2001/REC-SVG-20010904/DTD/svg10.dtd">
<svg version="1.0" xmlns="http://www.w3.org/2000/svg"
 width="208.000000pt" height="31.000000pt" viewBox="0 0 208.000000 31.000000"
 preserveAspectRatio="xMidYMid meet">

<g transform="translate(0.000000,31.000000) scale(0.100000,-0.100000)"
fill="#000000" stroke="none">
<path d="M71 298 c-13 -7 -33 -25 -44 -40 -32 -43 -15 -77 53 -110 66 -32 81
-44 74 -62 -11 -29 -104 -50 -119 -26 -12 19 -26 11 -16 -9 15 -27 65 -45 109
-38 48 8 96 58 86 90 -10 35 -44 65 -87 80 -86 28 -67 83 26 74 47 -4 56 3 38
32 -12 19 -91 25 -120 9z"/>
<path d="M430 302 l-35 -7 -3 -120 c-1 -66 0 -131 3 -144 6 -23 9 -23 72 -18
69 5 100 21 136 69 43 58 28 166 -29 203 -28 18 -95 26 -144 17z m106 -60 c51
-34 38 -150 -18 -166 -65 -17 -68 -13 -68 77 0 46 3 87 7 90 9 9 65 9 79 -1z"/>
<path d="M727 303 l-38 -4 3 -142 3 -142 61 1 c44 1 71 7 97 23 93 57 88 216
-8 257 -34 14 -44 14 -118 7z m113 -73 c14 -14 20 -33 20 -64 0 -58 -23 -86
-78 -93 l-42 -6 0 76 c0 41 3 82 6 91 9 23 69 21 94 -4z"/>
<path d="M1075 300 c-14 -5 -27 -27 -39 -66 -10 -33 -26 -75 -36 -94 -25 -47
-41 -100 -34 -111 12 -20 42 -8 54 21 12 29 20 33 83 43 25 4 30 0 44 -34 10
-26 23 -41 39 -45 38 -10 43 2 24 55 -15 37 -16 51 -7 60 9 9 7 13 -9 17 -14
4 -28 27 -48 79 -30 78 -39 87 -71 75z m35 -142 c0 -13 -8 -18 -25 -18 -29 0
-28 -2 -13 40 10 31 12 32 25 15 7 -11 13 -27 13 -37z"/>
<path d="M1310 302 l-35 -7 -3 -138 -3 -138 28 3 c26 3 28 6 31 56 4 70 24 68
81 -9 36 -50 47 -59 65 -53 31 10 31 9 -9 64 l-38 52 32 28 c38 35 41 77 8
116 -18 21 -33 27 -73 29 -27 2 -65 0 -84 -3z m118 -76 c5 -26 -24 -46 -65
-46 -31 0 -33 2 -33 36 l0 35 47 -3 c38 -2 49 -7 51 -22z"/>
<path d="M1613 303 c-70 -4 -73 -5 -73 -28 0 -23 4 -25 45 -25 l45 0 0 -114
c0 -107 1 -115 21 -121 11 -4 24 -4 27 0 4 4 9 58 11 121 l3 114 32 0 c43 0
60 13 51 39 -5 17 -13 21 -48 19 -23 -1 -75 -4 -114 -5z"/>
<path d="M1827 304 c-4 -4 -7 -69 -7 -145 0 -132 1 -137 22 -142 33 -9 38 -1
38 64 l0 59 60 0 60 0 0 -59 c0 -55 2 -59 27 -65 17 -5 29 -3 35 6 4 7 7 74 6
148 l-3 135 -30 0 c-30 0 -30 0 -28 -51 2 -58 -4 -64 -84 -64 l-43 0 0 55 c0
30 -4 55 -9 55 -5 0 -16 2 -23 5 -8 3 -17 2 -21 -1z"/>
<path d="M272 158 c3 -140 4 -143 26 -146 21 -3 22 -1 22 81 0 46 3 112 6 146
l7 61 -32 0 -32 0 3 -142z"/>
</g>
</svg>
