<svg xmlns="http://www.w3.org/2000/svg" width="24" height="24" viewBox="0 0 18 18" fill="none">
  <g clip-path="url(#clip0_202_3762)">
    <path d="M3.24883 0.667791C3.10375 0.750935 2.98642 0.875022 2.91152 1.02452C2.83662 1.17402 2.80747 1.34229 2.82774 1.50827L4.11226 15.2931C4.19437 15.9624 4.98589 16.2743 5.50235 15.8408L7.9189 13.8127L9.1344 15.9182C9.83344 17.1287 11.2373 17.2561 12.4477 16.557C13.6586 15.858 14.2502 14.5787 13.5512 13.3682L12.3399 11.2702L15.2578 10.2085C15.8914 9.97784 16.017 9.13668 15.4785 8.73089L4.18264 0.725931C4.04974 0.625952 3.89043 0.567153 3.72445 0.556819C3.55847 0.546485 3.3931 0.585068 3.24883 0.667791ZM4.75809 3.28715L13.2045 9.14654L9.85333 10.366L9.86897 10.3903L12.079 14.2182C12.3217 14.6386 12.0184 14.8421 11.5979 15.0848C11.1773 15.3276 10.8495 15.4886 10.6068 15.0682L8.39677 11.2403L8.37926 11.2066L5.60928 13.5317L4.75809 3.28715Z" fill="white"/>
  </g>
  <defs>
    <clipPath id="clip0_202_3762">
      <rect width="17" height="17" fill="white" transform="translate(0.819336 0.269043)"/>
    </clipPath>
  </defs>
</svg>