<svg xmlns="http://www.w3.org/2000/svg" width="44" height="45" viewBox="0 0 44 45" fill="none">
  <path fill-rule="evenodd" clip-rule="evenodd" d="M12.9441 10.3762C11.115 10.3762 9.76152 11.9525 9.82211 13.6619C9.88024 15.3042 9.80472 17.4312 9.26083 19.1658C8.71532 20.9054 7.79272 22.0075 6.28577 22.149V23.7463C7.79272 23.8878 8.71532 24.9899 9.26083 26.7296C9.80472 28.4641 9.88024 30.5911 9.82211 32.2334C9.76152 33.9427 11.115 35.5191 12.9444 35.5191H31.6869C33.5162 35.5191 34.8694 33.9429 34.8087 32.2334C34.7506 30.5911 34.8261 28.4641 35.37 26.7296C35.9158 24.9899 36.836 23.8878 38.3429 23.7463V22.149C36.836 22.0075 35.9158 20.9054 35.37 19.1658C34.8261 17.4315 34.7506 15.3042 34.8087 13.6619C34.8694 11.9527 33.5162 10.3762 31.6869 10.3762H12.9441ZM28.0194 25.8532C28.0194 28.2071 26.2361 29.6347 23.2769 29.6347H18.2393C18.0952 29.6347 17.957 29.5782 17.8551 29.4779C17.7532 29.3776 17.6959 29.2416 17.6959 29.0997V16.7957C17.6959 16.6538 17.7532 16.5177 17.8551 16.4174C17.957 16.3171 18.0952 16.2607 18.2393 16.2607H23.2481C25.7156 16.2607 27.335 17.5767 27.335 19.5972C27.335 21.0154 26.2457 22.2851 24.8577 22.5074V22.5815C26.7472 22.7856 28.0194 24.0738 28.0194 25.8532ZM22.7276 17.9565H19.8552V21.9511H22.2744C24.1445 21.9511 25.1758 21.2096 25.1758 19.8843C25.1758 18.6424 24.2891 17.9565 22.7276 17.9565ZM19.8552 23.5362V27.9383H22.8333C24.7803 27.9383 25.8118 27.169 25.8118 25.7233C25.8118 24.2773 24.7515 23.5359 22.708 23.5359L19.8552 23.5362Z" fill="#191F2B"/>
</svg>
