<svg xmlns="http://www.w3.org/2000/svg" width="70" height="70" viewBox="0 0 70 70" fill="none">
  <path d="M54.2463 33.2185L36.7815 15.7552C36.5424 15.5158 36.2585 15.3258 35.946 15.1963C35.6335 15.0667 35.2985 15 34.9601 15C34.6218 15 34.2868 15.0667 33.9743 15.1963C33.6618 15.3258 33.3779 15.5158 33.1388 15.7552L29.5117 19.3822L34.1113 23.9816C34.652 23.798 35.2334 23.7693 35.7896 23.8989C36.3458 24.0284 36.8547 24.311 37.2586 24.7147C37.6647 25.1214 37.9483 25.634 38.0771 26.1941C38.2059 26.7542 38.1746 27.3393 37.9869 27.8824L42.4197 32.3156C42.9628 32.1269 43.5481 32.0951 44.1085 32.2238C44.6689 32.3525 45.1816 32.6366 45.5879 33.0435C45.8726 33.3281 46.0984 33.6659 46.2524 34.0378C46.4064 34.4096 46.4857 34.8082 46.4857 35.2107C46.4857 35.6132 46.4064 36.0117 46.2524 36.3836C46.0984 36.7554 45.8726 37.0933 45.5879 37.3779C45.0128 37.9527 44.233 38.2756 43.4198 38.2756C42.6067 38.2756 41.8269 37.9527 41.2518 37.3779C40.8237 36.9501 40.5319 36.4051 40.4132 35.8116C40.2945 35.2182 40.3542 34.6029 40.5849 34.0434L36.4494 29.9092V40.7907C36.8859 41.0063 37.2647 41.3228 37.5545 41.714C37.8443 42.1052 38.0368 42.5598 38.1159 43.0401C38.1951 43.5205 38.1586 44.0128 38.0096 44.4763C37.8606 44.9398 37.6033 45.3611 37.259 45.7053C36.9745 45.99 36.6366 46.2158 36.2647 46.3698C35.8929 46.5238 35.4943 46.6031 35.0918 46.6031C34.6893 46.6031 34.2908 46.5238 33.9189 46.3698C33.5471 46.2158 33.2092 45.99 32.9246 45.7053C32.6399 45.4207 32.4141 45.0829 32.26 44.711C32.1059 44.3391 32.0266 43.9405 32.0266 43.5379C32.0266 43.1354 32.1059 42.7368 32.26 42.3649C32.4141 41.993 32.6399 41.6551 32.9246 41.3705C33.2117 41.0827 33.5533 40.855 33.9293 40.7006V29.719C33.5532 29.5655 33.2116 29.3383 32.9246 29.0508C32.4948 28.6204 32.2025 28.072 32.085 27.4752C31.9675 26.8784 32.0301 26.2601 32.2647 25.6989L27.7296 21.1639L15.7549 33.1366C15.5156 33.3759 15.3257 33.6599 15.1962 33.9725C15.0667 34.2852 15 34.6202 15 34.9586C15 35.297 15.0667 35.6321 15.1962 35.9447C15.3257 36.2573 15.5156 36.5414 15.7549 36.7806L33.2202 54.2461C33.7034 54.7288 34.3585 55 35.0415 55C35.7246 55 36.3797 54.7288 36.8629 54.2461L54.2463 36.8624C54.729 36.3789 55 35.7236 55 35.0405C55 34.3573 54.729 33.702 54.2463 33.2185Z" fill="#191F2B"/>
</svg>
