<svg xmlns="http://www.w3.org/2000/svg" width="24" height="24" viewBox="0 0 35 36" fill="none">
  <path d="M17.3358 3.4336C9.12471 3.43018 2.47412 10.273 2.47412 18.7188C2.47412 25.3975 6.63447 31.0747 12.4284 33.1597C13.2087 33.3613 13.0892 32.7905 13.0892 32.4009V29.752C8.5835 30.2954 8.40088 27.2261 8.09873 26.7134C7.48779 25.6401 6.04346 25.3667 6.4751 24.854C7.50107 24.3105 8.54697 24.9907 9.75889 26.833C10.6354 28.1694 12.3454 27.9438 13.212 27.7217C13.4013 26.9185 13.8063 26.2007 14.3642 25.6436C9.6958 24.7822 7.7501 21.8496 7.7501 18.3633C7.7501 16.6714 8.29131 15.1162 9.35381 13.8618C8.67647 11.7939 9.41689 10.0234 9.5165 9.76025C11.4456 9.58252 13.4511 11.1821 13.6071 11.3086C14.7028 11.0044 15.9546 10.8438 17.3558 10.8438C18.7636 10.8438 20.0187 11.0112 21.1243 11.3188C21.4995 11.0249 23.3589 9.65088 25.1519 9.81836C25.2481 10.0815 25.972 11.811 25.3345 13.8516C26.4103 15.1094 26.9581 16.6782 26.9581 18.3735C26.9581 21.8667 24.9991 24.8027 20.3175 25.6504C20.7185 26.0563 21.0369 26.5405 21.2541 27.0745C21.4713 27.6085 21.5829 28.1818 21.5825 28.7607V32.606C21.6091 32.9136 21.5825 33.2178 22.0806 33.2178C27.9608 31.1772 32.1942 25.459 32.1942 18.7222C32.1942 10.273 25.5403 3.4336 17.3358 3.4336Z" fill="#191F2B"/>
</svg>