<svg xmlns="http://www.w3.org/2000/svg" width="44" height="44" viewBox="0 0 44 44" fill="none">
  <rect y="0.947632" width="44" height="43" fill="white"/>
  <path d="M6.28577 7.09052V37.8048H37.7143V7.09052H6.28577ZM23.3896 31.0444C23.3896 34.0335 21.5937 35.3981 18.9773 35.3981C16.6134 35.3981 15.2452 34.2057 14.5436 32.7589L16.9502 31.3394C17.4137 32.1413 17.8346 32.8203 18.8516 32.8203C19.8191 32.8203 20.4365 32.4495 20.4365 31.0038V21.1928H23.3896V31.0444ZM30.3758 35.3981C27.6325 35.3981 25.8579 34.1235 24.9947 32.4495L27.4013 31.0926C28.0332 32.1007 28.8605 32.8477 30.3129 32.8477C31.533 32.8477 32.3198 32.251 32.3198 31.4217C32.3198 30.4345 31.5195 30.0845 30.1659 29.5021L29.4295 29.1938C27.2969 28.3097 25.8871 27.1919 25.8871 24.8401C25.8871 22.6736 27.5775 21.0282 30.2085 21.0282C32.0886 21.0282 33.4356 21.6655 34.4042 23.3384L32.1032 24.7787C31.5981 23.8945 31.0504 23.5446 30.2018 23.5446C29.3397 23.5446 28.792 24.0799 28.792 24.7787C28.792 25.643 29.3397 25.9919 30.6092 26.5338L31.3456 26.842C33.8576 27.8907 35.2674 28.9679 35.2674 31.38C35.2674 33.9721 33.1763 35.397 30.3769 35.397L30.3758 35.3981Z" fill="#191F2B"/>
</svg>