<svg xmlns="http://www.w3.org/2000/svg" width="43" height="44" viewBox="0 0 43 44" fill="none">
  <path d="M36.1155 29.0287C36.1155 29.0287 32.2955 39.3301 19.1442 36.932C18.9373 36.8935 18.7388 36.8215 18.5378 36.7607C18.4908 36.747 18.4433 36.7319 18.3963 36.7185C18.1989 36.6571 18.0034 36.5941 17.8091 36.5263C17.7869 36.5186 17.7657 36.5113 17.7431 36.5033C17.5662 36.4411 17.3902 36.375 17.2165 36.3083C17.171 36.2906 17.1257 36.2733 17.0805 36.2548C16.8933 36.1809 16.7071 36.1036 16.5229 36.0229C16.4889 36.0079 16.4561 35.9929 16.4216 35.9777C16.2604 35.906 16.1012 35.8317 15.9433 35.7562C15.9023 35.7354 15.861 35.7162 15.8197 35.6967C15.7973 35.6854 15.773 35.6742 15.75 35.6627C15.6481 35.6117 15.5485 35.5588 15.4481 35.5062C15.3706 35.4662 15.2919 35.4273 15.2149 35.386C15.0727 35.3085 14.9324 35.2298 14.7929 35.1493C14.7412 35.1198 14.689 35.0913 14.6377 35.0615C14.4482 34.9501 14.2608 34.8343 14.0761 34.7173C14.0238 34.6838 13.9721 34.6484 13.9206 34.6138C13.8002 34.5358 13.6797 34.4578 13.5617 34.3764C13.5492 34.3678 13.5372 34.3589 13.5249 34.3501C13.4792 34.3191 13.4357 34.2874 13.3902 34.2544C13.2658 34.1679 13.1425 34.0794 13.0206 33.9894C12.9616 33.9449 12.9028 33.9002 12.8444 33.8554C12.7339 33.7712 12.6239 33.6849 12.5149 33.5979C12.4607 33.5545 12.4057 33.5115 12.3515 33.4675C12.2185 33.358 12.086 33.2465 11.9563 33.134C11.9318 33.1126 11.9058 33.0916 11.8808 33.0691C11.8783 33.0681 11.8765 33.0661 11.8738 33.0638C11.7266 32.9348 11.5821 32.8026 11.4388 32.6676C11.3956 32.6281 11.3526 32.5859 11.3091 32.5444C11.2021 32.4416 11.0962 32.3381 10.9919 32.2332C10.9487 32.1907 10.9059 32.1477 10.8645 32.1047C10.7298 31.9662 10.5967 31.8275 10.4668 31.6857C10.462 31.6793 10.4573 31.6755 10.4516 31.6693C10.4493 31.6668 10.4461 31.6635 10.4438 31.6607C10.3109 31.5142 10.1804 31.3645 10.0527 31.2143C10.0169 31.1721 9.98095 31.1288 9.94567 31.0861C9.85046 30.9714 9.7567 30.8569 9.66474 30.7409C9.62651 30.6927 9.58828 30.644 9.55053 30.5955C9.44733 30.4622 9.34533 30.328 9.24658 30.1915C9.22806 30.166 9.20835 30.141 9.19056 30.116C9.18677 30.1118 9.18358 30.1072 9.18106 30.103C9.06662 29.9447 8.95614 29.7835 8.84765 29.6221C8.81393 29.5726 8.7822 29.5216 8.74968 29.4706C8.67118 29.3511 8.59418 29.2316 8.51971 29.1107C8.48076 29.0487 8.44374 28.9865 8.40623 28.9241C8.33849 28.8112 8.27225 28.6982 8.208 28.5842C8.17128 28.5197 8.13503 28.4568 8.09951 28.3905C8.07973 28.3555 8.05828 28.3195 8.03904 28.2828C8.00526 28.2217 7.97479 28.1581 7.94179 28.0958C7.89082 27.9981 7.83907 27.8999 7.78984 27.8004C5.71275 23.6474 5.37381 18.5624 8.09326 14.6538L10.2159 11.9617C7.82104 16.5903 8.89736 22.2265 11.8933 26.3126C12.0015 26.4614 12.1123 26.6081 12.2254 26.7548C12.2605 26.799 12.2956 26.8436 12.3307 26.8861C12.4249 27.006 12.5211 27.1245 12.6184 27.2418C12.6534 27.283 12.6876 27.3235 12.7234 27.366C12.8534 27.5195 12.9863 27.6719 13.1228 27.8206C13.1293 27.8278 13.1356 27.8344 13.1418 27.8413C13.2708 27.9821 13.4023 28.121 13.536 28.258C13.5775 28.3 13.6197 28.3415 13.662 28.3835C13.767 28.4907 13.8742 28.5948 13.9832 28.6982C14.0244 28.7392 14.0659 28.7787 14.1087 28.8194C14.2559 28.9564 14.4044 29.0926 14.5556 29.2256C14.5713 29.2394 14.5876 29.2521 14.602 29.2648C14.742 29.3865 14.8838 29.5051 15.0272 29.6231C15.0772 29.6638 15.1282 29.7045 15.1792 29.745C15.2919 29.8357 15.4059 29.924 15.5206 30.0117C15.5754 30.0537 15.6316 30.0965 15.6884 30.1384C15.8131 30.2309 15.9391 30.3219 16.0664 30.4119C16.1096 30.4411 16.1516 30.4729 16.1953 30.5024C16.3269 30.5934 16.4608 30.6818 16.5953 30.7683C16.6458 30.8019 16.6958 30.8368 16.7468 30.8694C16.9322 30.9868 17.1197 31.1023 17.3092 31.2138C17.3579 31.2418 17.4067 31.268 17.4546 31.295C17.5976 31.3777 17.7409 31.4592 17.8868 31.5372C17.9658 31.5811 18.047 31.6209 18.127 31.6632C18.2465 31.7247 18.366 31.7872 18.4869 31.8462C18.5326 31.8686 18.5771 31.8897 18.6219 31.9109C18.7761 31.9851 18.9308 32.0566 19.0873 32.1276C19.1243 32.1436 19.1603 32.1603 19.1975 32.1763C19.3798 32.2561 19.5639 32.3326 19.7497 32.4057C19.7974 32.4247 19.8452 32.443 19.8931 32.4621C20.0621 32.5275 20.2323 32.591 20.4045 32.6518C20.4313 32.6613 20.458 32.671 20.484 32.6805C20.676 32.7465 20.8691 32.8095 21.0639 32.869C21.1136 32.8845 21.1634 32.8995 21.2143 32.9145C21.4138 32.9734 21.612 33.0372 21.8165 33.0835C27.2124 34.3115 32.9071 33.2087 36.1155 29.0287ZM17.0785 22.4247C17.3735 22.8469 17.6999 23.3495 18.0911 23.6888C18.2326 23.845 18.381 23.9972 18.5323 24.1469C18.5703 24.1858 18.6095 24.2234 18.6488 24.2616C18.7952 24.4041 18.9452 24.5443 19.0992 24.6805C19.1057 24.6853 19.1115 24.6918 19.1177 24.6963C19.1195 24.6983 19.121 24.6988 19.1222 24.7008C19.2932 24.8503 19.4697 24.9945 19.6486 25.1362C19.6884 25.1667 19.7278 25.1985 19.7681 25.2295C19.9478 25.3672 20.1311 25.5027 20.3191 25.6316C20.3248 25.6356 20.3293 25.6396 20.335 25.6436C20.4177 25.7011 20.5023 25.7546 20.586 25.8096C20.6265 25.8356 20.6647 25.8635 20.7052 25.8881C20.8396 25.9743 20.9754 26.058 21.1136 26.1385C21.1331 26.1505 21.1521 26.1605 21.1714 26.1718C21.2901 26.2403 21.4113 26.308 21.5323 26.3735C21.5743 26.397 21.6173 26.418 21.6603 26.4404C21.7437 26.484 21.8277 26.5287 21.9127 26.5709C21.9255 26.5769 21.9387 26.5829 21.951 26.5882C22.1242 26.6734 22.2989 26.7559 22.4776 26.8333C22.5156 26.8504 22.5551 26.8653 22.5939 26.8814C22.7366 26.9418 22.8806 27.0011 23.0253 27.0566C23.0868 27.0798 23.1491 27.1021 23.21 27.1243C23.3417 27.1733 23.4735 27.2178 23.6064 27.2623C23.6667 27.2815 23.7257 27.3013 23.7859 27.3198C23.9749 27.3783 24.1618 27.4527 24.359 27.4853C34.513 29.1677 36.8571 21.3497 36.8571 21.3497C34.7438 24.3931 30.6516 25.8451 26.2846 24.7118C26.0909 24.6608 25.8997 24.6051 25.71 24.5453C25.6514 24.5278 25.5945 24.5089 25.5367 24.4896C25.4018 24.4458 25.2675 24.3993 25.1343 24.3508C25.0736 24.3286 25.0126 24.3064 24.9528 24.2833C24.8071 24.2273 24.6629 24.1694 24.5202 24.1089C24.4809 24.0919 24.4417 24.0769 24.4035 24.0594C24.2243 23.9813 24.0478 23.8993 23.8738 23.8133C23.7841 23.7695 23.6963 23.7232 23.6078 23.6778C23.5568 23.6516 23.5056 23.6252 23.4546 23.599C23.3416 23.5376 23.2292 23.474 23.1184 23.4094C23.0921 23.3942 23.0646 23.3799 23.0379 23.364C22.9007 23.2835 22.7652 23.2006 22.631 23.1155C22.5897 23.0892 22.5497 23.0605 22.5085 23.0334C22.4197 22.9761 22.3315 22.918 22.2445 22.859C22.0576 22.73 21.8756 22.5946 21.6958 22.4576C21.6544 22.425 21.6131 22.3931 21.5721 22.3605C19.6609 20.8512 18.146 18.7888 17.4251 16.4502C16.6705 14.0248 16.8332 11.3023 18.1412 9.09287L16.5343 11.3612C14.5679 14.1913 14.6747 17.9796 16.2086 20.9727C16.4662 21.4746 16.7554 21.9612 17.0785 22.4247ZM27.7811 18.9234C27.8648 18.9547 27.9483 18.9824 28.033 19.0111C28.07 19.0224 28.107 19.0352 28.1442 19.0462C28.2637 19.0838 28.3824 19.1274 28.5059 19.1506C34.1129 20.2339 35.6333 16.2734 36.0383 15.6906C34.706 17.6085 32.4677 18.069 29.7205 17.4024C29.5038 17.3495 29.2653 17.2711 29.0558 17.1971C28.7876 17.1015 28.5239 16.9925 28.267 16.8692C27.7788 16.6348 27.3144 16.3505 26.883 16.025C24.4252 14.1599 22.8985 10.6021 24.5022 7.70477L23.6343 8.90095C22.4751 10.6071 22.3613 12.726 23.1654 14.6105C24.0138 16.6105 25.7522 18.1797 27.7811 18.9234Z" fill="#191F2B"/>
</svg>
