<svg xmlns="http://www.w3.org/2000/svg" width="44" height="44" viewBox="0 0 44 44" fill="none">
	<path d="M21.9509 39.7978C21.4809 39.7978 21.0038 39.6744 20.5899 39.4413L16.2615 36.9389C15.6161 36.5824 15.9318 36.459 16.1422 36.3904C17.0051 36.0956 17.1805 36.0339 18.0995 35.5197C18.1977 35.4649 18.324 35.4854 18.4222 35.5471L21.7474 37.4736C21.8667 37.5422 22.0351 37.5422 22.1473 37.4736L35.1046 30.1653C35.2238 30.0967 35.301 29.9596 35.301 29.8225V15.2058C35.301 15.0618 35.2238 14.9315 35.0976 14.8561L22.1473 7.55462C22.0281 7.48606 21.8667 7.48606 21.7474 7.55462L8.8042 14.863C8.67792 14.9315 8.60076 15.0686 8.60076 15.2126V29.8225C8.60076 29.9596 8.67792 30.0967 8.8042 30.1584L12.3539 32.1603C14.2832 33.0996 15.4617 31.9958 15.4617 30.8783V16.4535C15.4617 16.2479 15.6301 16.0902 15.8406 16.0902H17.4821C17.6856 16.0902 17.861 16.2479 17.861 16.4535V30.8851C17.861 33.3944 16.4579 34.8341 14.0236 34.8341C13.273 34.8341 12.6837 34.8341 11.0421 34.0388L7.64667 32.126C6.80484 31.653 6.28571 30.7686 6.28571 29.8156V15.2058C6.28571 14.2597 6.80484 13.3684 7.64667 12.8953L20.5899 5.58699C21.4107 5.1345 22.4981 5.1345 23.3119 5.58699L36.2691 12.9022C37.111 13.3752 37.6301 14.2597 37.6301 15.2126V29.8225C37.6301 30.7686 37.111 31.653 36.2691 32.1329L23.3119 39.4413C22.898 39.6744 22.4279 39.7978 21.9509 39.7978ZM32.4107 25.3936C32.4107 22.6581 30.5166 21.9314 26.5389 21.4172C22.5121 20.8961 22.1052 20.6288 22.1052 19.7101C22.1052 18.9491 22.449 17.9344 25.4305 17.9344C28.0893 17.9344 29.0714 18.4966 29.4783 20.2517C29.5134 20.4162 29.6677 20.5396 29.8431 20.5396H31.5268C31.632 20.5396 31.7302 20.4985 31.8004 20.4231C31.8705 20.3477 31.9056 20.2448 31.8986 20.142C31.639 17.1186 29.5835 15.7131 25.4305 15.7131C21.7334 15.7131 19.5306 17.2351 19.5306 19.7923C19.5306 22.5621 21.7264 23.33 25.2691 23.6728C29.5134 24.0773 29.8431 24.6874 29.8431 25.5033C29.8431 26.9156 28.6786 27.5189 25.9496 27.5189C22.5191 27.5189 21.7685 26.6756 21.5159 25.0097C21.4879 24.8314 21.3335 24.7011 21.1441 24.7011H19.4675C19.257 24.7011 19.0957 24.8657 19.0957 25.0645C19.0957 27.1967 20.2812 29.7402 25.9566 29.7402C30.0536 29.7333 32.4107 28.1496 32.4107 25.3936Z" fill="#191F2B"/>
</svg>
