<svg xmlns="http://www.w3.org/2000/svg" width="44" height="45" viewBox="0 0 44 45" fill="none">
  <path d="M22 19.9687C23.5056 19.9687 24.7335 21.2165 24.7335 22.7762C24.7335 24.2617 23.5056 25.5243 22 25.5243C20.4943 25.5243 19.2664 24.2617 19.2664 22.7762C19.2664 21.2165 20.4943 19.9687 22 19.9687ZM15.2319 34.6599C16.1528 35.2243 18.1701 34.3628 20.4943 32.1346C19.7342 31.2582 18.9887 30.3075 18.287 29.3122C17.1091 29.1977 15.9379 29.0191 14.7787 28.7775C14.0332 31.9563 14.311 34.14 15.2319 34.6599ZM16.2698 26.1333L15.8458 25.3757C15.685 25.8065 15.5242 26.2373 15.4219 26.6532C15.8166 26.7424 16.2551 26.8166 16.7083 26.8909L16.2698 26.1333ZM25.8299 25.0044L27.0139 22.7762L25.8299 20.548C25.3914 19.7607 24.9236 19.0625 24.4997 18.3644C23.7103 18.3198 22.8771 18.3198 22 18.3198C21.1229 18.3198 20.2897 18.3198 19.5003 18.3644C19.0764 19.0625 18.6086 19.7607 18.1701 20.548L16.986 22.7762L18.1701 25.0044C18.6086 25.7917 19.0764 26.4898 19.5003 27.188C20.2897 27.2326 21.1229 27.2326 22 27.2326C22.8771 27.2326 23.7103 27.2326 24.4997 27.188C24.9236 26.4898 25.3914 25.7917 25.8299 25.0044ZM22 15.0221C21.7223 15.3489 21.4299 15.6905 21.1375 16.0916H22.8625C22.5701 15.6905 22.2777 15.3489 22 15.0221ZM22 30.5303C22.2777 30.2035 22.5701 29.8618 22.8625 29.4608H21.1375C21.4299 29.8618 21.7223 30.2035 22 30.5303ZM28.7535 10.8925C27.8472 10.328 25.8299 11.1896 23.5056 13.4178C24.2658 14.2942 25.0113 15.2449 25.7129 16.2402C26.9116 16.359 28.0957 16.5373 29.2213 16.7749C29.9668 13.5961 29.689 11.4124 28.7535 10.8925ZM27.7302 19.4191L28.1541 20.1766C28.3149 19.7459 28.4757 19.3151 28.5781 18.8991C28.1834 18.81 27.7448 18.7357 27.2917 18.6615L27.7302 19.4191ZM29.8498 8.94656C31.9987 10.1943 32.2325 13.4772 31.3262 17.3097C35.0392 18.4238 37.7143 20.2658 37.7143 22.7762C37.7143 25.2866 35.0392 27.1286 31.3262 28.2427C32.2325 32.0752 31.9987 35.358 29.8498 36.6058C27.7156 37.8536 24.8066 36.4276 22 33.7092C19.1933 36.4276 16.2844 37.8536 14.1355 36.6058C12.0013 35.358 11.7674 32.0752 12.6737 28.2427C8.96079 27.1286 6.28571 25.2866 6.28571 22.7762C6.28571 20.2658 8.96079 18.4238 12.6737 17.3097C11.7674 13.4772 12.0013 10.1943 14.1355 8.94656C16.2844 7.69878 19.1933 9.12482 22 11.8432C24.8066 9.12482 27.7156 7.69878 29.8498 8.94656ZM29.4259 22.7762C29.9229 23.8903 30.3615 25.0044 30.7269 26.1333C33.7967 25.1975 35.5216 23.8606 35.5216 22.7762C35.5216 21.6918 33.7967 20.3549 30.7269 19.4191C30.3615 20.548 29.9229 21.6621 29.4259 22.7762ZM14.5741 22.7762C14.0771 21.6621 13.6385 20.548 13.2731 19.4191C10.2033 20.3549 8.4784 21.6918 8.4784 22.7762C8.4784 23.8606 10.2033 25.1975 13.2731 26.1333C13.6385 25.0044 14.0771 23.8903 14.5741 22.7762ZM27.7302 26.1333L27.2917 26.8909C27.7448 26.8166 28.1834 26.7424 28.5781 26.6532C28.4757 26.2373 28.3149 25.8065 28.1541 25.3757L27.7302 26.1333ZM23.5056 32.1346C25.8299 34.3628 27.8472 35.2243 28.7535 34.6599C29.689 34.14 29.9668 31.9563 29.2213 28.7775C28.0957 29.0151 26.9116 29.1934 25.7129 29.3122C25.0113 30.3075 24.2658 31.2582 23.5056 32.1346ZM16.2698 19.4191L16.7083 18.6615C16.2551 18.7357 15.8166 18.81 15.4219 18.8991C15.5242 19.3151 15.685 19.7459 15.8458 20.1766L16.2698 19.4191ZM20.4943 13.4178C18.1701 11.1896 16.1528 10.328 15.2319 10.8925C14.311 11.4124 14.0332 13.5961 14.7787 16.7749C15.9379 16.5332 17.1091 16.3547 18.287 16.2402C18.9887 15.2449 19.7342 14.2942 20.4943 13.4178Z" fill="#191F2B"/>
</svg>
