<svg xmlns="http://www.w3.org/2000/svg" width="44" height="44" viewBox="0 0 44 44" fill="none">
  <path d="M28.0625 28.467C29.2222 28.3496 30.1021 27.3725 30.0621 26.1999C30.0222 25.0273 29.0222 24.0892 27.8224 24.0892H27.7425C26.5026 24.1283 25.5428 25.1445 25.5828 26.3562C25.6228 26.9425 25.8627 27.4506 26.2227 27.8024C24.8629 30.4213 22.7832 32.3365 19.6637 33.939C17.5439 35.0335 15.3443 35.4243 13.1447 35.1508C11.3449 34.9162 9.94511 34.1346 9.06511 32.8446C7.78537 30.9294 7.66543 28.8577 8.7453 26.7862C9.50523 25.3009 10.7049 24.2064 11.4649 23.6592C11.3049 23.1511 11.0649 22.2912 10.9449 21.6659C5.14574 25.77 5.74571 31.3203 7.50546 33.939C8.82522 35.8935 11.5049 37.1051 14.4644 37.1051C15.2643 37.1051 16.0641 37.0269 16.8641 36.8316C21.9834 35.8543 25.8628 32.8837 28.0625 28.467ZM35.1015 23.6202C32.0619 20.1415 27.5826 18.2263 22.4633 18.2263H21.8234C21.4634 17.5227 20.7035 17.0536 19.8636 17.0536H19.7836C18.5439 17.0927 17.5841 18.1089 17.624 19.3207C17.664 20.4932 18.6638 21.4313 19.8636 21.4313H19.9436C20.8234 21.3922 21.5834 20.845 21.9033 20.1024H22.6232C25.6628 20.1024 28.5424 20.9622 31.1421 22.643C33.1417 23.9329 34.5815 25.6136 35.3814 27.6461C36.0613 29.2877 36.0212 30.8903 35.3013 32.2584C34.1816 34.3299 32.3019 35.4635 29.8222 35.4635C28.2224 35.4635 26.7027 34.9943 25.9027 34.6426C25.4628 35.0335 24.6629 35.6588 24.1029 36.0498C25.8228 36.8314 27.5826 37.2614 29.2623 37.2614C33.1017 37.2614 35.9413 35.1898 37.0212 33.1183C38.181 30.8512 38.1009 26.9425 35.1015 23.6202ZM14.7844 29.1313C14.8244 30.3039 15.8242 31.2419 17.024 31.2419H17.1041C18.3439 31.2029 19.3037 30.1866 19.2637 28.9749C19.2238 27.8023 18.2238 26.8643 17.024 26.8643H16.9441C16.8641 26.8643 16.744 26.8643 16.6642 26.9033C15.0244 24.2454 14.3445 21.3531 14.5845 18.2261C14.7443 15.8809 15.5443 13.8484 16.9441 12.1676C18.1039 10.7214 20.3435 10.0179 21.8634 9.97887C26.1027 9.90065 27.9024 15.06 28.0224 17.1317C28.5424 17.2489 29.4222 17.5226 30.0222 17.718C29.5422 11.3861 25.5428 8.10278 21.7034 8.10278C18.1039 8.10278 14.7844 10.6434 13.4645 14.3957C11.6248 19.3988 12.8246 24.2064 15.0643 27.9978C14.8644 28.2714 14.7443 28.7013 14.7844 29.1313Z" fill="#191F2B"/>
</svg>
