<svg xmlns="http://www.w3.org/2000/svg" width="70" height="70" viewBox="0 0 70 70" fill="none">
  <rect width="70" height="70" fill="white"/>
  <path d="M59.9794 42.1321C59.8358 40.9681 59.246 39.9583 58.2216 39.1273C58.2088 39.1118 58.1948 39.0974 58.1796 39.0843L58.1278 39.0472L58.1112 39.0355L57.5673 38.6448L57.5487 38.6312L57.4794 38.5823C57.454 38.5675 57.4267 38.556 57.3983 38.5482C55.6776 37.5237 52.829 36.806 48.4706 38.3441C47.4306 36.5941 47.3124 35.1917 48.0087 33.0433C48.1327 32.6692 48.0175 32.4222 47.6464 32.262C46.9003 31.9446 45.8788 32.1067 45.1542 32.2982C44.8163 32.386 44.6132 32.5775 44.5487 32.8675C44.0897 35.0159 42.7558 36.9788 41.4657 38.8734L41.3896 38.9847C40.5946 37.2991 40.7597 35.9935 41.3134 34.3577C41.4237 34.0316 41.3368 33.8148 41.0312 33.6526C40.1776 33.2122 38.8974 33.515 38.3876 33.6653C37.7411 33.8538 37.0478 35.6009 36.2733 37.6927C36.078 38.2191 35.9101 38.6692 35.8095 38.8792C35.5702 39.3675 35.3417 39.9241 35.0995 40.515C34.5526 41.8519 33.9364 43.3567 33.0556 44.3021C32.7353 43.5941 33.2392 42.4778 33.7284 41.3948C34.3075 40.1146 34.8544 38.9046 34.2245 38.1321C34.1249 38.01 34.0013 37.9096 33.8614 37.837C33.7215 37.7645 33.5682 37.7213 33.411 37.7103C33.2059 37.6947 33 37.7281 32.8105 37.8079C32.8759 37.2562 32.8788 36.8206 32.7177 36.2942C32.4872 35.5433 31.8886 35.1224 31.0644 35.1448C29.1874 35.1995 27.5995 36.598 26.5966 37.762C25.9286 38.5433 24.4481 39.139 23.1483 39.6614C22.6347 39.8792 22.1464 40.0745 21.7392 40.2698C21.0897 39.721 20.2646 39.1673 19.3954 38.5823C16.954 36.9437 14.1874 35.0853 14.0917 32.5657C13.955 28.8441 18.1933 26.2044 21.8925 24.3206C24.6962 22.8948 27.1337 21.9495 29.3446 21.4329C32.4501 20.7073 35.0731 20.8538 37.1396 21.8665C38.2704 22.4202 38.7997 23.6243 38.4638 24.8626C37.5849 28.0804 33.9433 30.2855 30.829 31.2776C28.953 31.8753 27.3563 32.1253 25.9462 32.0433C24.1786 31.9407 22.7353 31.054 22.1181 30.6761C22.0192 30.6086 21.9146 30.5497 21.8056 30.5003L21.7772 30.4935C21.7214 30.4796 21.6627 30.4813 21.6078 30.4985C21.5528 30.5158 21.5037 30.5478 21.4657 30.5911C21.3388 30.7425 21.3837 30.9817 21.4296 31.1028C22.0302 32.6722 23.2704 33.6634 25.1151 34.0491C25.7189 34.17 26.3334 34.2286 26.9491 34.2239C31.2665 34.2239 36.7753 31.7347 38.7987 29.6849C40.1786 28.2884 41.1835 26.8528 41.5995 24.3773C42.0341 21.7845 40.2763 19.9827 38.4853 19.1526C34.1327 17.1439 29.1894 17.9378 25.8085 18.9573C21.8534 20.1497 17.7616 22.3177 14.5839 24.9075C10.6659 28.098 9.2499 31.0599 10.373 33.721C11.5263 36.4485 14.3388 38.1546 17.0585 39.805C17.9374 40.3372 18.7733 40.8441 19.5263 41.3675C19.2997 41.4778 19.0683 41.5901 18.8329 41.7025C16.5497 42.8089 13.9599 44.054 12.5233 46.1116C11.4804 47.6107 11.2851 49.1028 11.9433 50.5472C12.2948 51.3157 12.9198 51.8372 13.788 52.097C14.2396 52.2249 14.7073 52.2871 15.1767 52.2816C16.8671 52.2816 18.7274 51.598 19.7401 50.9661C21.5292 49.8431 22.6884 48.3353 23.1864 46.4847C23.6298 44.8382 23.5233 43.2024 22.8788 41.7425L25.0712 40.637C24.0136 44.1526 24.8241 46.2523 25.7147 47.4105C26.0429 47.8372 26.6347 48.0941 27.2958 48.1058C27.9569 48.1175 28.5653 47.8685 28.9091 47.4446C29.5595 46.639 30.0399 45.6966 30.4823 44.7542C30.4589 45.3694 30.4882 45.9925 30.6981 46.5208C30.8866 46.9964 31.1972 47.3118 31.5976 47.4329C32.0233 47.5628 32.5224 47.4534 33.0028 47.1253C35.1679 45.6439 36.6483 42.0882 37.8378 39.2298C38.0067 38.8235 38.1688 38.4329 38.3261 38.0677C38.6204 39.1208 39.0297 40.1384 39.5468 41.1019C39.662 41.3108 39.6522 41.4026 39.496 41.5745C39.2606 41.8323 38.9325 42.1439 38.5849 42.4739C37.5321 43.473 36.2216 44.72 36.0458 45.8167C35.9774 46.2562 36.2802 46.6565 36.7499 46.7474C38.163 47.0286 39.8651 46.6175 41.3046 45.6487C42.6132 44.7698 43.1054 43.5443 42.7694 42.0169C42.4442 40.5462 43.1864 38.72 44.9755 36.5853C45.2685 37.8089 45.6591 38.7982 46.1981 39.6644L46.1835 39.6761C44.8808 40.8138 43.0956 42.3714 43.373 44.261C43.3962 44.4408 43.4567 44.6136 43.5505 44.7687C43.6443 44.9237 43.7695 45.0575 43.9179 45.1614C44.0765 45.2685 44.2555 45.3417 44.4437 45.3763C44.632 45.4109 44.8253 45.4062 45.0116 45.3626C46.7177 45.0042 48.0019 44.2825 48.9355 43.1585C49.869 42.0345 49.5282 40.7884 49.2138 39.8216C51.6552 39.1595 53.829 39.1761 55.8642 39.8704C57.0067 40.261 57.8261 40.9026 58.2987 41.7884C58.8935 42.9026 58.5722 43.931 57.3915 44.6839C57.0292 44.9153 56.8544 45.0569 56.8437 45.2357C56.8413 45.2771 56.8489 45.3186 56.8659 45.3565C56.8829 45.3944 56.9088 45.4276 56.9413 45.4534C57.078 45.5657 57.4999 45.761 58.454 45.1605C59.3329 44.6087 59.8485 43.8577 59.9804 42.9144C60.0069 42.6543 60.0066 42.3922 59.9794 42.1321ZM20.9433 44.5794L20.9335 44.7044C20.7812 46.1341 20.0546 47.3802 18.7704 48.4153C17.9638 49.0657 17.0878 49.4651 16.3046 49.5413C15.7577 49.5941 15.3603 49.5198 15.1239 49.3196C14.9472 49.1702 14.8524 48.9466 14.831 48.636C14.6708 46.1478 18.5731 43.6751 20.7694 42.8616C20.9262 43.4199 20.985 44.0011 20.9433 44.5794ZM30.9384 37.5618C30.5771 39.6214 29.5233 43.5091 27.8671 45.0179C27.788 45.0901 27.7216 45.1155 27.6913 45.1087C27.661 45.1019 27.6376 45.0657 27.6132 45.011C27.0605 43.7298 27.2646 41.5657 28.1015 39.8655C28.745 38.555 29.664 37.6868 30.6913 37.4241C30.734 37.4124 30.7779 37.4061 30.8222 37.4056C30.8568 37.4031 30.8912 37.4124 30.9198 37.4319C30.9319 37.4511 30.9398 37.4725 30.943 37.4949C30.9462 37.5173 30.9446 37.5401 30.9384 37.5618ZM39.0917 45.0696C38.7802 45.3948 38.3534 45.3509 38.454 45.2317L40.0399 43.5482C39.912 44.1273 39.5341 44.6067 39.0917 45.0696ZM45.6708 43.6136C45.52 43.6879 45.3568 43.7339 45.1894 43.7493C45.1444 42.8636 46.0028 41.8665 46.8495 41.2015C47.0771 42.1253 46.6112 43.1019 45.6708 43.6136Z" fill="#191F2B"/>
</svg>