<svg xmlns="http://www.w3.org/2000/svg" width="44" height="44" viewBox="0 0 44 44" fill="none">
  <rect y="0.947632" width="44" height="43" fill="white"/>
  <path fill-rule="evenodd" clip-rule="evenodd" d="M22.0001 13.2333C17.8091 13.2333 15.1911 15.2682 14.1429 19.3393C15.7143 17.3045 17.5482 16.5413 19.6429 17.0496C20.8388 17.3398 21.6936 18.1829 22.6381 19.1151C24.1796 20.6339 25.9632 22.3923 29.8572 22.3923C34.0482 22.3923 36.6662 20.3575 37.7143 16.2863C36.1429 18.3212 34.3106 19.0844 32.2143 18.5761C31.0185 18.2858 30.1636 17.4427 29.2176 16.5106C27.6776 14.9902 25.8956 13.2333 22.0001 13.2333ZM14.1429 22.3923C9.95191 22.3923 7.33391 24.4272 6.28577 28.4983C7.8572 26.462 9.69105 25.7003 11.7858 26.2086C12.9816 26.4988 13.8365 27.3419 14.7825 28.2741C16.3225 29.7929 18.1061 31.5513 22.0016 31.5513C26.1926 31.5513 28.8106 29.5165 29.8588 25.4453C28.2873 27.4802 26.4535 28.2434 24.3588 27.7351C23.1629 27.4448 22.3081 26.6017 21.3636 25.6695C19.8205 24.1507 18.0369 22.3923 14.1429 22.3923Z" fill="#191F2B"/>
</svg>