<?xml version="1.0" encoding="UTF-8"?>
<svg version="1.1" xmlns="http://www.w3.org/2000/svg" width="87" height="105">
<path d="M0 0 C0.79100098 0.00418945 1.58200195 0.00837891 2.39697266 0.01269531 C9.52576103 0.15015298 16.04144032 0.78030562 21.75 5.375 C24.30608144 8.82015325 24.27990789 11.06173684 24.1875 15.3125 C18.45071671 18.46282758 11.87297717 17.37336063 5.5546875 17.14648438 C-0.70152635 17.02221711 -6.10825944 17.57298414 -11.8125 20.3125 C-14.07548437 22.18213998 -14.07548437 22.18213998 -14.25 25.125 C-13.64592016 29.52615311 -12.30817092 30.58587668 -8.8125 33.3125 C-5.56324967 35.1613173 -2.19948407 36.73340279 1.1875 38.3125 C12.58061681 43.63184522 22.27410768 48.63799156 28.1875 60.3125 C29.73102249 64.94306748 30.03380639 69.0069083 28.3515625 73.58984375 C23.28162145 83.54258037 15.05890216 88.66965302 4.9375 92.5625 C-6.34053927 94.81810785 -18.20304809 93.35097222 -27.9375 86.875 C-30.68814626 84.42333703 -32.44693449 82.72641378 -33.8125 79.3125 C-33.5 76.5 -33.5 76.5 -32.8125 74.3125 C-29.63098535 74.66600163 -28.2010692 74.86891215 -26.046875 77.328125 C-22.28990381 80.66473578 -18.37776654 79.84357027 -13.5625 79.703125 C-5.8362871 78.89831116 2.29488629 76.56807439 8.1875 71.3125 C9.5134856 68.93366511 9.5134856 68.93366511 9.1875 66.3125 C6.54114269 62.4357102 3.88202213 60.22312202 -0.1875 57.9375 C-1.24324219 57.34195313 -2.29898438 56.74640625 -3.38671875 56.1328125 C-6.29776921 54.58600576 -9.23209998 53.11609968 -12.20019531 51.68261719 C-20.54691747 47.64738689 -28.55012593 43.20606111 -33.8125 35.3125 C-35.77825706 29.41522883 -35.36790891 24.87780329 -32.8125 19.3125 C-28.45454159 11.28793069 -21.40673155 4.24467224 -12.6796875 1.23046875 C-8.34417437 0.2013318 -4.43468706 -0.0319651 0 0 Z " fill="#010101" transform="translate(44.8125,5.6875)"/>
</svg>
