<?xml version="1.0" standalone="no"?>
<!DOCTYPE svg PUBLIC "-//W3C//DTD SVG 20010904//EN"
 "http://www.w3.org/TR/2001/REC-SVG-20010904/DTD/svg10.dtd">
<svg version="1.0" xmlns="http://www.w3.org/2000/svg"
 width="314.000000pt" height="214.000000pt" viewBox="0 0 314.000000 214.000000"
 preserveAspectRatio="xMidYMid meet">

<g transform="translate(0.000000,214.000000) scale(0.100000,-0.100000)"
fill="#000000" stroke="none">
<path d="M2480 1535 c0 -8 5 -15 10 -15 6 0 10 7 10 15 0 8 -4 15 -10 15 -5 0
-10 -7 -10 -15z"/>
<path d="M2333 1384 c-8 -3 -13 -24 -13 -50 l0 -44 65 0 65 0 0 -177 c0 -98 4
-184 9 -192 6 -10 19 -12 45 -7 l36 7 2 187 3 187 63 3 62 3 0 34 0 33 -82 6
c-167 12 -243 15 -255 10z"/>
<path d="M189 1357 c-40 -27 -66 -89 -55 -132 11 -45 68 -91 142 -115 62 -21
104 -49 104 -69 0 -5 -9 -19 -19 -32 -15 -19 -28 -24 -65 -23 -24 0 -57 9 -71
18 -26 17 -28 17 -51 -5 -13 -12 -24 -26 -24 -30 0 -11 80 -47 123 -55 53 -9
122 12 152 48 33 39 35 113 4 152 -24 31 -81 62 -150 82 -67 20 -86 57 -49 94
25 25 81 26 121 3 28 -16 29 -16 54 7 19 18 22 26 13 37 -38 47 -172 58 -229
20z"/>
<path d="M650 1371 l-25 -7 0 -219 0 -220 38 -3 37 -3 0 185 0 186 70 0 c81 0
131 -17 155 -53 72 -111 0 -237 -137 -237 -22 0 -31 -7 -43 -36 -8 -20 -15
-38 -15 -40 0 -8 117 -3 153 7 48 13 102 60 130 113 32 62 30 157 -5 217 -32
54 -86 94 -148 108 -50 12 -172 13 -210 2z"/>
<path d="M1662 1368 c-6 -7 -26 -52 -46 -100 -20 -48 -61 -141 -91 -207 -30
-66 -55 -125 -55 -131 0 -5 18 -10 41 -10 36 0 41 3 55 35 l14 35 95 0 c89 0
95 1 95 20 0 12 -7 35 -16 51 -15 30 -16 30 -70 23 -30 -3 -54 -4 -54 0 0 3
18 45 40 93 l41 88 35 -80 c20 -44 55 -123 78 -175 l43 -95 46 -3 c36 -2 47 0
47 12 0 14 -72 178 -128 291 -16 33 -40 84 -52 113 -22 51 -23 52 -65 52 -23
0 -47 -6 -53 -12z"/>
<path d="M1987 1373 c-4 -3 -7 -109 -7 -235 l0 -228 45 0 45 0 2 188 3 187 24
3 c38 6 91 -8 112 -29 43 -43 6 -119 -59 -119 -27 0 -34 -5 -47 -36 -21 -51
-19 -64 9 -64 19 0 33 -14 65 -65 l41 -65 50 0 c31 0 50 4 50 11 0 7 -17 40
-39 73 l-39 62 34 36 c42 47 58 104 44 158 -13 49 -54 99 -97 116 -33 14 -224
20 -236 7z"/>
<path d="M500 1145 l0 -225 34 0 c22 0 36 6 40 16 8 20 8 398 0 418 -4 10 -18
16 -40 16 l-34 0 0 -225z"/>
<path d="M1077 1363 c-4 -3 -7 -105 -7 -225 l0 -218 40 0 40 0 0 185 0 185 79
0 c90 0 133 -21 164 -80 47 -90 -18 -191 -132 -207 -51 -8 -55 -10 -67 -45
l-13 -38 65 0 c76 0 126 18 172 63 51 49 65 83 66 162 0 57 -4 78 -23 109 -58
94 -107 115 -262 116 -64 0 -119 -3 -122 -7z"/>
<path d="M2710 1145 l0 -225 35 0 34 0 3 93 3 92 92 3 92 3 3 -93 3 -93 38 -3
37 -3 0 225 0 226 -40 0 -40 0 0 -90 0 -90 -95 0 -95 0 0 90 0 90 -35 0 -35 0
0 -225z"/>
<path d="M1464 807 c-3 -8 -4 -39 -2 -68 3 -47 6 -54 25 -57 27 -4 73 38 73
66 0 43 -83 93 -96 59z m66 -26 c14 -27 13 -47 -6 -65 -30 -31 -44 -20 -44 34
0 43 3 50 20 50 10 0 24 -9 30 -19z"/>
<path d="M1584 806 c-3 -7 -4 -38 -2 -67 l3 -54 38 -3 c27 -2 37 1 37 12 0 8
-11 16 -25 18 -32 4 -37 22 -7 26 30 5 28 20 -5 34 l-28 11 29 6 c16 3 31 12
34 19 5 17 -67 16 -74 -2z"/>
<path d="M1671 803 c1 -31 35 -117 47 -121 14 -4 37 45 47 101 10 54 -12 48
-26 -8 -13 -51 -19 -50 -34 3 -11 38 -36 56 -34 25z"/>
<path d="M1942 763 c-91 -3 -122 -7 -119 -16 2 -8 38 -13 113 -15 179 -6 1036
10 1027 18 -9 9 -824 19 -1021 13z"/>
<path d="M220 750 c0 -7 197 -10 570 -10 373 0 570 3 570 10 0 7 -197 10 -570
10 -373 0 -570 -3 -570 -10z"/>
<path d="M1415 701 c-3 -5 -1 -12 5 -16 5 -3 10 1 10 9 0 18 -6 21 -15 7z"/>
</g>
</svg>
