<svg xmlns="http://www.w3.org/2000/svg" width="40" height="40" viewBox="0 0 38 37" fill="none">
<path d="M26.5574 20.5209V26.0664H23.2537V20.8914C23.2537 19.5924 22.7757 18.7059 21.5794 18.7059C20.6667 18.7059 20.1225 19.3029 19.8836 19.8819C19.7972 20.0889 19.7741 20.3769 19.7741 20.6649V26.0664H16.4688C16.4688 26.0664 16.5135 17.3034 16.4688 16.3959H19.7741V17.7654L19.7525 17.7969H19.7741V17.7654C20.2135 17.1054 20.9967 16.1679 22.7526 16.1679C24.9264 16.1679 26.5574 17.5509 26.5574 20.5209ZM13.0108 11.7324C11.8808 11.7324 11.1408 12.4554 11.1408 13.4034C11.1408 14.3334 11.8592 15.0759 12.9677 15.0759H12.9892C14.1424 15.0759 14.8593 14.3319 14.8593 13.4034C14.8377 12.4554 14.1424 11.7324 13.0108 11.7324ZM11.3366 26.0664H14.6419V16.3959H11.3366V26.0664Z" fill="#191F2B"></path><path d="M18.8491 30.8257C22.1201 30.8257 25.2572 29.5614 27.5701 27.311C29.883 25.0605 31.1824 22.0083 31.1824 18.8257C31.1824 15.6431 29.883 12.5908 27.5701 10.3404C25.2572 8.08997 22.1201 6.82568 18.8491 6.82568C15.5781 6.82568 12.4411 8.08997 10.1281 10.3404C7.81518 12.5908 6.51578 15.6431 6.51578 18.8257C6.51578 22.0083 7.81518 25.0605 10.1281 27.311C12.4411 29.5614 15.5781 30.8257 18.8491 30.8257ZM18.8491 33.8257C10.3345 33.8257 3.43245 27.1102 3.43245 18.8257C3.43245 10.5412 10.3345 3.82568 18.8491 3.82568C27.3637 3.82568 34.2658 10.5412 34.2658 18.8257C34.2658 27.1102 27.3637 33.8257 18.8491 33.8257Z" fill="#191F2B"></path>
</svg>